<mxfile host="Electron" modified="2023-05-28T12:38:29.350Z" agent="Mozilla/5.0 (Windows NT 10.0; Win64; x64) AppleWebKit/537.36 (KHTML, like Gecko) draw.io/21.2.8 Chrome/112.0.5615.165 Electron/24.2.0 Safari/537.36" etag="7gGArkgANZBn98r_5Hcv" version="21.2.8" type="device">
  <diagram name="Pagina-1" id="kIyEjT8rgLJaU1CWWP8U">
    <mxGraphModel dx="1050" dy="629" grid="1" gridSize="10" guides="1" tooltips="1" connect="1" arrows="1" fold="1" page="1" pageScale="1" pageWidth="827" pageHeight="1169" math="0" shadow="0">
      <root>
        <mxCell id="0" />
        <mxCell id="1" parent="0" />
        <mxCell id="56poxndqkTSk0lLZda9S-7" style="edgeStyle=orthogonalEdgeStyle;rounded=0;orthogonalLoop=1;jettySize=auto;html=1;exitX=0.004;exitY=0.364;exitDx=0;exitDy=0;entryX=1;entryY=0.25;entryDx=0;entryDy=0;exitPerimeter=0;" edge="1" parent="1" source="6TpzFSWFUE0twRWNOGQ--1" target="56poxndqkTSk0lLZda9S-1">
          <mxGeometry relative="1" as="geometry" />
        </mxCell>
        <mxCell id="6TpzFSWFUE0twRWNOGQ--1" value="[Master] Redboard" style="whiteSpace=wrap;html=1;aspect=fixed;" parent="1" vertex="1">
          <mxGeometry x="660" y="240" width="110" height="110" as="geometry" />
        </mxCell>
        <mxCell id="56poxndqkTSk0lLZda9S-10" style="edgeStyle=orthogonalEdgeStyle;rounded=0;orthogonalLoop=1;jettySize=auto;html=1;exitX=0.993;exitY=0.356;exitDx=0;exitDy=0;entryX=0;entryY=0.25;entryDx=0;entryDy=0;exitPerimeter=0;" edge="1" parent="1" source="6TpzFSWFUE0twRWNOGQ--2" target="56poxndqkTSk0lLZda9S-1">
          <mxGeometry relative="1" as="geometry" />
        </mxCell>
        <mxCell id="6TpzFSWFUE0twRWNOGQ--2" value="[Master] Redboard" style="whiteSpace=wrap;html=1;aspect=fixed;" parent="1" vertex="1">
          <mxGeometry x="60" y="240" width="110" height="110" as="geometry" />
        </mxCell>
        <mxCell id="56poxndqkTSk0lLZda9S-8" style="edgeStyle=orthogonalEdgeStyle;rounded=0;orthogonalLoop=1;jettySize=auto;html=1;exitX=1;exitY=0.75;exitDx=0;exitDy=0;entryX=0.004;entryY=0.633;entryDx=0;entryDy=0;entryPerimeter=0;" edge="1" parent="1" source="56poxndqkTSk0lLZda9S-1" target="6TpzFSWFUE0twRWNOGQ--1">
          <mxGeometry relative="1" as="geometry" />
        </mxCell>
        <mxCell id="56poxndqkTSk0lLZda9S-9" style="edgeStyle=orthogonalEdgeStyle;rounded=0;orthogonalLoop=1;jettySize=auto;html=1;exitX=0;exitY=0.75;exitDx=0;exitDy=0;entryX=0.993;entryY=0.64;entryDx=0;entryDy=0;entryPerimeter=0;" edge="1" parent="1" source="56poxndqkTSk0lLZda9S-1" target="6TpzFSWFUE0twRWNOGQ--2">
          <mxGeometry relative="1" as="geometry" />
        </mxCell>
        <mxCell id="56poxndqkTSk0lLZda9S-1" value="[Slave] Qwiic oled display" style="rounded=1;whiteSpace=wrap;html=1;" vertex="1" parent="1">
          <mxGeometry x="354" y="265" width="120" height="60" as="geometry" />
        </mxCell>
        <mxCell id="56poxndqkTSk0lLZda9S-11" value="SetDisplay() / Request availability" style="text;html=1;align=center;verticalAlign=middle;resizable=0;points=[];autosize=1;strokeColor=none;fillColor=none;" vertex="1" parent="1">
          <mxGeometry x="455" y="240" width="200" height="30" as="geometry" />
        </mxCell>
        <mxCell id="56poxndqkTSk0lLZda9S-14" value="SetDisplay() / Request availability" style="text;html=1;align=center;verticalAlign=middle;resizable=0;points=[];autosize=1;strokeColor=none;fillColor=none;" vertex="1" parent="1">
          <mxGeometry x="170" y="235" width="200" height="30" as="geometry" />
        </mxCell>
        <mxCell id="56poxndqkTSk0lLZda9S-15" value="Return availabilty" style="text;html=1;align=center;verticalAlign=middle;resizable=0;points=[];autosize=1;strokeColor=none;fillColor=none;" vertex="1" parent="1">
          <mxGeometry x="490" y="310" width="120" height="30" as="geometry" />
        </mxCell>
        <mxCell id="56poxndqkTSk0lLZda9S-16" value="Return availabilty" style="text;html=1;align=center;verticalAlign=middle;resizable=0;points=[];autosize=1;strokeColor=none;fillColor=none;" vertex="1" parent="1">
          <mxGeometry x="200" y="310" width="120" height="30" as="geometry" />
        </mxCell>
      </root>
    </mxGraphModel>
  </diagram>
</mxfile>
